<svg version="1.1" id="Layer_1" xmlns="http://www.w3.org/2000/svg" xmlns:xlink="http://www.w3.org/1999/xlink" x="0px" y="0px"
	 width="100%" viewBox="0 0 1304 1206" enable-background="new 0 0 1304 1206" xml:space="preserve">
<path fill="#FFFFFF" opacity="1.000000" stroke="none" 
	d="
M1.000000,945.000000 
	C1.000000,630.415527 1.000000,315.830994 1.000000,1.000000 
	C217.027969,1.000000 433.056030,1.000000 649.427490,1.340889 
	C643.879089,5.904628 637.312073,9.441249 632.207581,14.464145 
	C603.705750,42.510380 575.591003,70.949692 547.230164,99.140205 
	C544.767517,101.588043 543.923706,103.994431 543.928894,107.388084 
	C544.025452,170.870590 544.031250,234.353363 543.914734,297.835815 
	C543.908325,301.313843 545.010254,303.616180 547.393311,306.012085 
	C581.175110,339.975769 614.863708,374.031982 648.574768,408.066010 
	C649.160767,408.657654 649.764954,409.232758 650.326538,409.846802 
	C660.964355,421.479858 671.504761,433.204254 682.286804,444.701996 
	C685.558411,448.190735 692.039917,448.059509 695.676392,444.803131 
	C703.879211,437.457703 712.130859,430.153687 720.060181,422.518555 
	C734.760132,408.364014 749.279968,394.021210 763.751282,379.632568 
	C764.975891,378.414917 765.907349,376.264862 765.909424,374.546661 
	C766.012878,286.904053 766.084839,199.261124 765.866150,111.618950 
	C765.844971,103.130417 763.174622,94.989502 756.417664,88.901825 
	C749.105225,82.313667 741.679138,75.839691 734.595276,69.012230 
	C719.298950,54.269440 704.211548,39.310097 688.995605,24.483454 
	C680.250916,15.962467 671.557007,7.366774 661.000000,1.000000 
	C875.612549,1.000000 1090.225098,1.000000 1305.000000,1.000000 
	C1305.000000,336.361359 1305.000000,671.722717 1304.617920,1007.427551 
	C1302.641846,1007.180664 1301.070068,1006.154480 1299.450073,1006.071716 
	C1290.044434,1005.591675 1280.625366,1005.386841 1271.215576,1004.977600 
	C1266.520996,1004.773438 1262.040039,1004.636658 1259.999634,1010.182129 
	C1253.699829,1027.304077 1247.486938,1044.460327 1240.947266,1061.490845 
	C1236.513184,1073.038330 1231.585938,1084.396606 1226.458740,1096.861572 
	C1225.609985,1093.791992 1225.234985,1091.893433 1224.567749,1090.103882 
	C1214.727783,1063.710571 1204.917847,1037.305298 1194.860107,1010.994995 
	C1193.971558,1008.670959 1191.470581,1005.349304 1189.606812,1005.274475 
	C1177.638794,1004.794067 1165.582520,1004.408447 1153.673096,1005.402649 
	C1147.129395,1005.948853 1146.991577,1009.250610 1149.522095,1014.202515 
	C1153.898193,1022.765991 1157.786499,1031.583862 1161.731689,1040.361450 
	C1171.719238,1062.582764 1181.669434,1084.821167 1191.542847,1107.093506 
	C1195.888306,1116.895874 1200.199585,1126.722900 1204.111572,1136.701294 
	C1205.186157,1139.442261 1205.624756,1143.020264 1204.826050,1145.769897 
	C1203.634399,1149.871460 1201.106812,1153.589478 1199.111084,1157.452026 
	C1192.893555,1169.486084 1184.988770,1171.807617 1170.862793,1166.928711 
	C1166.701538,1165.491455 1163.220581,1166.471313 1161.582520,1170.975830 
	C1158.846191,1178.500977 1156.305054,1186.111938 1154.070679,1193.799805 
	C1152.528198,1199.107178 1154.513306,1201.714233 1159.919922,1203.023315 
	C1164.971436,1204.246460 1169.975220,1205.666626 1175.000000,1207.000000 
	C783.780151,1207.000000 392.560242,1207.000000 1.000000,1207.000000 
	C1.000000,1120.305542 1.000000,1033.610718 1.408784,946.625122 
	C2.211702,963.413147 2.940910,980.492249 2.921187,997.570557 
	C2.891833,1022.988220 2.224775,1048.404541 2.033504,1073.822998 
	C1.871738,1095.320190 1.939783,1116.820190 2.126266,1138.317017 
	C2.139771,1139.873901 3.656315,1142.362549 4.983002,1142.772949 
	C8.042624,1143.719849 11.421022,1143.986816 14.660239,1143.933228 
	C22.576738,1143.802246 30.489971,1143.048828 38.399864,1143.113647 
	C42.695805,1143.148804 44.123177,1142.062134 44.100330,1137.547485 
	C43.919834,1101.884277 44.022728,1066.219727 43.957741,1030.555786 
	C43.952427,1027.637695 43.127056,1024.724121 43.081810,1021.802368 
	C43.028740,1018.375488 43.412491,1014.941833 43.606781,1011.511108 
	C44.288963,1011.420471 44.971146,1011.329834 45.653328,1011.239197 
	C63.164268,1055.054688 80.675209,1098.870239 98.311783,1143.000000 
	C110.386658,1143.000000 123.045891,1142.960205 135.704575,1143.025269 
	C139.285553,1143.043579 140.986313,1141.609985 142.151657,1138.024902 
	C145.066788,1129.056519 148.542862,1120.265015 151.950073,1111.463135 
	C161.258804,1087.415894 170.591827,1063.377686 180.031082,1039.381470 
	C184.293411,1028.545898 188.830856,1017.818420 193.243454,1007.041931 
	C193.847763,1007.136780 194.452072,1007.231689 195.056381,1007.326538 
	C194.704285,1011.558228 194.139938,1015.784729 194.037216,1020.022461 
	C193.615097,1037.438232 193.175919,1054.856201 193.040070,1072.275757 
	C192.872421,1093.772827 193.062531,1115.272705 192.947586,1136.770508 
	C192.924408,1141.104614 193.788162,1143.338745 198.944870,1143.124390 
	C209.093246,1142.702393 219.271561,1143.000488 229.437485,1142.999756 
	C235.980133,1142.999268 235.996185,1142.998413 235.997284,1136.393677 
	C236.003052,1101.896118 236.000000,1067.398682 236.000000,1032.901123 
	C236.000000,1005.236450 235.950272,977.571655 236.052734,949.907349 
	C236.068390,945.679504 234.989288,943.809631 230.236328,943.892395 
	C214.075745,944.173950 197.906860,944.057007 181.741989,943.956848 
	C178.063660,943.934082 175.944931,945.369446 174.952759,948.910706 
	C173.656311,953.538208 172.426804,958.217468 170.666367,962.676270 
	C162.902588,982.339722 154.713867,1001.838196 147.141525,1021.573792 
	C137.695221,1046.193604 128.702911,1070.987549 119.328178,1096.207764 
	C118.453827,1094.520752 117.597519,1093.179810 117.030075,1091.726196 
	C110.336143,1074.577881 103.760078,1057.383301 97.003555,1040.259888 
	C89.418060,1021.035767 81.575340,1001.912842 74.048225,982.666199 
	C69.736404,971.640869 65.823341,960.459412 61.743828,949.343445 
	C60.573593,946.154724 58.772179,944.634766 54.938908,944.875427 
	C47.966953,945.313293 40.947742,944.997925 33.948250,944.997986 
	C22.965500,944.998108 11.982750,944.999329 1.000000,945.000000 
M1003.929443,618.021362 
	C1011.525085,617.680908 1019.130920,616.917603 1026.713867,617.101562 
	C1037.431519,617.361511 1045.986328,612.882690 1053.478760,605.963745 
	C1062.616577,597.525269 1071.480225,588.789246 1080.433960,580.152222 
	C1089.988892,570.935303 1099.510742,561.683960 1109.045776,552.446411 
	C1109.644043,551.866760 1110.213623,551.256287 1110.827026,550.693542 
	C1123.107910,539.427185 1136.005859,528.749451 1147.478882,516.713562 
	C1156.208252,507.555847 1159.695801,499.735352 1146.783691,487.342285 
	C1138.826660,479.705048 1130.505981,472.448242 1122.448975,464.913269 
	C1110.495728,453.734558 1098.608765,442.484680 1086.735474,431.220978 
	C1072.815186,418.015350 1058.997192,404.700684 1044.964722,391.615692 
	C1043.381226,390.139130 1040.712524,389.163361 1038.520386,389.113159 
	C1026.695068,388.842285 1014.861267,388.936768 1003.005066,387.980164 
	C1003.003357,352.666107 1003.012146,317.352020 1002.969604,282.037994 
	C1002.967468,280.266571 1002.672180,278.459747 1002.258606,276.730347 
	C999.695740,266.014587 993.524841,257.918823 983.998047,252.500626 
	C974.563660,247.135040 964.289856,246.543259 954.069763,249.035599 
	C943.152222,251.698029 934.954224,258.587738 927.328796,266.891602 
	C912.610779,282.919159 897.029114,298.154083 881.790649,313.703094 
	C864.570618,331.274261 847.457275,348.952515 830.065491,366.352203 
	C816.440857,379.982880 802.471375,393.268982 788.638855,406.691376 
	C778.155334,416.864105 767.589172,426.952301 757.160645,437.180969 
	C738.289673,455.690338 719.474121,474.256409 700.675354,492.839142 
	C691.514221,501.895020 682.241333,510.851379 673.402222,520.214600 
	C667.542664,526.421631 667.062744,538.870911 672.266846,545.687866 
	C679.121704,554.667358 685.907898,563.796753 693.667358,571.965149 
	C704.970764,583.864075 716.924011,595.170349 728.969238,606.331055 
	C736.711731,613.505005 745.808533,617.730103 756.916443,617.108887 
	C766.214844,616.588928 775.566528,617.020996 785.343140,617.790894 
	C793.533447,617.801575 801.723755,617.812256 810.782532,617.978271 
	C812.537048,617.874084 814.291504,617.769897 816.152527,618.374084 
	C817.397522,619.712158 818.595947,621.097290 819.894287,622.381470 
	C848.758179,650.930664 877.606323,679.495850 906.517395,707.997131 
	C920.435730,721.718079 934.308228,735.493591 948.537170,748.887817 
	C955.103149,755.068604 963.043518,759.141479 972.305969,760.005371 
	C991.427551,761.788635 1002.946533,743.225037 1002.973816,729.921875 
	C1003.050476,692.618958 1003.002991,655.315735 1003.929443,618.021362 
M302.993927,618.033752 
	C302.995941,653.658203 302.997955,689.282593 303.000153,724.907043 
	C303.000244,726.238770 302.669952,727.676392 303.054565,728.886353 
	C308.693115,746.626770 321.138885,757.560120 339.388824,758.854431 
	C352.492249,759.783752 363.769592,754.425476 373.093170,745.329468 
	C378.637451,739.920532 383.673492,733.994934 389.090973,728.451111 
	C407.189270,709.930908 425.375336,691.496521 443.492249,672.994446 
	C461.711517,654.387939 479.888275,635.739807 498.702637,616.836914 
	C501.185486,614.731628 503.798187,612.760132 506.129639,610.498718 
	C518.623169,598.380310 531.018066,586.160278 543.504028,574.033997 
	C552.067627,565.717102 560.741089,557.513428 569.335144,549.227722 
	C580.068420,538.879700 590.828674,528.558594 601.467529,518.114075 
	C609.667908,510.063568 617.791443,501.929688 625.760620,493.651459 
	C629.030701,490.254608 632.025574,486.537292 634.758179,482.690521 
	C640.001953,475.308716 638.951660,461.537781 632.545715,455.072571 
	C614.089966,436.445923 595.748230,417.693176 576.827942,399.546478 
	C569.781311,392.787903 560.841614,388.875977 550.511536,388.946899 
	C530.694031,389.083008 510.874268,388.907410 490.732605,388.289978 
	C478.834930,376.707306 466.875305,365.187469 455.051880,353.529510 
	C425.913788,324.799194 396.855530,295.988007 367.718719,267.256470 
	C363.477417,263.074127 359.235535,258.822510 354.544006,255.182846 
	C347.248566,249.523117 338.967621,245.320648 329.512329,246.178024 
	C313.425323,247.636765 303.021454,262.942230 303.006042,276.946381 
	C302.964966,314.253174 302.953369,351.559937 302.008179,388.984406 
	C294.012421,388.989563 286.015442,388.909454 278.021240,389.023010 
	C269.394806,389.145508 261.808075,392.323914 255.532730,398.070068 
	C243.470810,409.115021 231.663086,420.437561 219.750259,431.645325 
	C208.444458,442.281891 197.092026,452.869446 185.848175,463.571075 
	C176.617676,472.356445 167.450607,481.210876 158.376450,490.157440 
	C149.448822,498.959534 147.592804,507.826355 158.254379,517.768250 
	C168.980026,527.769897 179.669418,537.810608 190.347168,547.863464 
	C202.357941,559.171265 214.392807,570.454468 226.315048,581.855164 
	C236.987961,592.061218 247.562424,602.371399 258.091400,612.726074 
	C261.029053,615.615112 264.171417,617.150696 268.453308,617.078674 
	C279.941620,616.885254 291.436340,617.074524 302.993927,618.033752 
M769.166321,855.362671 
	C770.110901,852.143005 771.866150,848.926331 771.878235,845.703186 
	C772.055420,798.542786 772.036255,751.381409 771.883667,704.220886 
	C771.876648,702.063843 770.725708,699.324768 769.167236,697.851318 
	C756.821960,686.179504 744.036621,674.969482 731.789429,663.198364 
	C706.886597,639.263489 682.380981,614.914551 657.413025,591.048706 
	C647.084473,581.176086 636.037781,572.049438 625.217224,562.699768 
	C620.952515,559.014954 613.975952,558.857910 609.224976,562.322449 
	C605.388123,565.120422 601.509949,567.989685 598.218628,571.379333 
	C592.722961,577.039124 587.779785,583.230530 582.429138,589.037109 
	C569.334045,603.248047 556.083740,617.316223 543.014648,631.550903 
	C538.583008,636.377686 535.531494,641.951294 536.004944,648.845703 
	C536.309875,653.285522 536.952026,657.721497 536.956726,662.159729 
	C537.020752,722.652405 536.998230,783.145203 537.001099,843.637939 
	C537.001709,855.706665 545.327881,863.998840 557.451416,863.999512 
	C621.277100,864.002930 685.103088,863.917480 748.928223,864.106628 
	C756.936829,864.130310 763.486511,862.054382 769.166321,855.362671 
M955.935181,953.418396 
	C942.666321,945.912598 928.331299,943.706665 913.237854,943.902893 
	C886.576965,944.249451 859.908264,944.000000 833.242859,944.000000 
	C829.602478,944.000000 825.962097,944.000000 822.000000,944.000000 
	C822.000000,949.804810 822.000000,955.250732 822.000000,960.696655 
	C822.000000,1019.360596 822.000000,1078.024536 822.000244,1136.688477 
	C822.000244,1137.855103 821.713745,1139.125366 822.084534,1140.159546 
	C822.464600,1141.219238 823.378296,1142.716309 824.251099,1142.861328 
	C827.951721,1143.475830 831.728638,1143.986206 835.469055,1143.932617 
	C843.722595,1143.814697 851.975769,1143.003662 860.219360,1143.127197 
	C864.944946,1143.197876 866.087463,1141.359253 866.055054,1137.109131 
	C865.922974,1119.777588 866.000000,1102.444458 866.000000,1085.111938 
	C866.000000,1081.482788 866.000000,1077.853638 866.000000,1073.000000 
	C877.001648,1073.000000 887.555786,1073.128784 898.105164,1072.961182 
	C907.353516,1072.814331 916.692871,1073.057861 925.820496,1071.841309 
	C941.395081,1069.765625 955.614685,1064.344849 966.496094,1052.090698 
	C972.940918,1044.832764 978.318604,1036.938965 979.848206,1027.344238 
	C981.260986,1018.482971 981.811951,1009.413330 981.903137,1000.426941 
	C982.107178,980.317810 973.060486,965.003723 955.935181,953.418396 
M572.000000,1082.500000 
	C572.000000,1037.500977 572.000000,992.501953 572.000000,947.502930 
	C572.000000,946.502930 572.405640,945.187622 571.921082,944.563843 
	C570.617065,942.885010 568.980164,940.261902 567.392273,940.201599 
	C557.074036,939.809875 546.732544,939.912354 536.401245,940.049805 
	C532.902161,940.096375 530.877014,941.570740 530.910339,945.803223 
	C531.096741,969.467896 531.000000,993.134827 531.000000,1016.800964 
	C531.000000,1018.389587 531.000000,1019.978210 531.000000,1022.657288 
	C528.076355,1019.670044 526.218384,1016.999512 523.694214,1015.345581 
	C517.546631,1011.317627 511.490082,1006.522827 504.660461,1004.316650 
	C495.369965,1001.315735 485.458679,1001.153564 475.541290,1002.890137 
	C463.433105,1005.010315 452.617645,1009.706726 443.681976,1017.964661 
	C429.952545,1030.652832 423.170013,1047.010254 422.160828,1065.361816 
	C421.162842,1083.510376 422.309998,1101.337646 432.710815,1117.590576 
	C439.943573,1128.892700 449.321747,1136.922729 461.518188,1141.764282 
	C474.115387,1146.765137 487.277679,1147.512085 500.491394,1144.933838 
	C513.080811,1142.477539 522.280151,1134.408203 530.984436,1125.073242 
	C531.361938,1131.110107 531.724060,1136.900146 532.105530,1143.000000 
	C540.388794,1143.000000 548.361816,1143.091431 556.331360,1142.966064 
	C561.205444,1142.889282 567.910828,1144.287964 570.438477,1141.720703 
	C573.064697,1139.053223 571.906494,1132.408203 571.951599,1127.498535 
	C572.086365,1112.833496 572.000000,1098.166382 572.000000,1082.500000 
M985.000061,1059.615479 
	C984.666748,1061.694092 983.949036,1063.794556 984.066650,1065.847412 
	C984.572510,1074.676758 984.864197,1083.556030 986.079529,1092.299561 
	C988.739746,1111.437988 999.048157,1125.879517 1014.949585,1136.422729 
	C1026.904419,1144.349243 1040.308228,1146.399536 1054.430420,1146.099731 
	C1067.109253,1145.830566 1077.690186,1141.297607 1086.809326,1132.736206 
	C1088.757690,1130.906982 1091.010498,1129.402100 1094.000122,1127.060913 
	C1094.000122,1131.757324 1094.128174,1135.344971 1093.960449,1138.918823 
	C1093.820557,1141.898926 1094.870117,1143.084229 1097.969727,1143.050171 
	C1109.449097,1142.924072 1120.930786,1142.999878 1132.778809,1142.999878 
	C1133.198608,1140.719604 1133.945068,1138.543091 1133.948730,1136.365112 
	C1134.017822,1094.384888 1133.962158,1052.404419 1134.066895,1010.424438 
	C1134.075928,1006.799988 1132.749023,1005.882446 1129.375000,1005.940308 
	C1119.549072,1006.108765 1109.713135,1006.189880 1099.892090,1005.915161 
	C1095.389404,1005.789124 1094.121582,1008.056885 1094.016724,1011.808594 
	C1093.933350,1014.791992 1094.000000,1017.779602 1094.000000,1021.586914 
	C1092.372803,1020.784851 1090.811157,1020.542847 1090.304932,1019.680908 
	C1086.745361,1013.620422 1081.002197,1010.140869 1075.118408,1007.090820 
	C1064.157959,1001.409180 1052.518311,1001.332153 1040.426392,1002.849976 
	C1020.686584,1005.327820 1005.921204,1014.987549 995.136963,1031.359009 
	C989.639404,1039.704712 986.875244,1049.041992 985.000061,1059.615479 
M359.185852,1004.029419 
	C358.353546,1004.005066 357.487915,1004.122192 356.693848,1003.935303 
	C341.897919,1000.455261 327.184631,1001.140991 312.561005,1004.881104 
	C297.431824,1008.750610 285.785065,1017.847229 276.602203,1030.068115 
	C272.491547,1035.538574 268.672821,1041.518677 266.159210,1047.839111 
	C260.842072,1061.209106 261.162018,1075.257202 262.955750,1089.363647 
	C265.306671,1107.852051 274.978210,1121.915405 290.060883,1131.801147 
	C302.207855,1139.762573 315.839996,1144.917969 330.660278,1146.002563 
	C354.067902,1147.715820 375.900299,1143.154907 395.536285,1129.820435 
	C401.259735,1125.933838 401.335205,1123.166992 396.529083,1117.947144 
	C392.774139,1113.868896 388.886627,1109.791138 385.885376,1105.175171 
	C382.983826,1100.712646 381.415680,1099.737793 376.394257,1102.238037 
	C370.949860,1104.948853 365.784332,1108.885010 360.028748,1110.142212 
	C352.277222,1111.835327 344.083832,1111.617432 336.069061,1111.966919 
	C324.123444,1112.487793 314.525208,1107.427124 307.146576,1098.417358 
	C304.458191,1095.134644 303.066101,1090.790283 300.604584,1086.000000 
	C304.063812,1086.000000 305.876465,1086.000000 307.689087,1086.000000 
	C338.671967,1086.000000 369.655396,1085.910278 400.637207,1086.092163 
	C405.547119,1086.120972 407.151978,1083.968750 406.978973,1079.667847 
	C406.727539,1073.417114 406.984497,1067.050171 405.842468,1060.954224 
	C404.255341,1052.482422 402.812988,1043.613159 399.104645,1035.985596 
	C391.155304,1019.634644 377.657013,1009.156982 359.185852,1004.029419 
M713.824585,1007.026123 
	C713.101196,1007.374695 712.380005,1007.728088 711.653931,1008.071167 
	C696.413696,1015.271851 684.145325,1025.798828 676.582153,1041.006470 
	C668.880249,1056.493164 666.753601,1073.109985 670.134033,1089.972534 
	C674.257751,1110.543213 684.701172,1127.213623 703.987488,1136.924194 
	C721.006226,1145.493164 738.869812,1148.996460 758.018677,1145.117554 
	C772.329041,1142.218994 785.460876,1137.170288 796.869080,1127.985352 
	C799.063660,1126.218384 800.123657,1124.012939 797.919739,1121.431396 
	C791.974854,1114.468018 786.150208,1107.393066 779.949829,1100.664795 
	C778.845703,1099.466553 776.012390,1099.061279 774.255615,1099.473633 
	C772.194092,1099.957764 770.298035,1101.566162 768.568237,1102.978271 
	C751.953003,1116.542236 731.946838,1112.074097 718.357971,1099.531982 
	C710.541504,1092.317993 708.913208,1082.084229 709.996704,1071.596924 
	C711.431213,1057.712036 716.571777,1046.194336 730.957153,1041.625977 
	C744.574768,1037.301270 758.013367,1036.318970 770.049622,1046.483398 
	C774.702209,1050.412476 777.352539,1049.846436 781.185547,1045.354248 
	C785.975525,1039.740356 790.859009,1034.203125 795.816528,1028.736572 
	C798.960876,1025.269531 799.308533,1021.949829 795.493958,1019.151489 
	C790.347107,1015.375793 784.911926,1011.773987 779.130737,1009.121216 
	C758.012207,999.430969 736.403259,999.613525 713.824585,1007.026123 
M644.000000,1031.500000 
	C644.000000,1025.334229 644.002441,1019.168396 643.999329,1013.002563 
	C643.996216,1006.822571 642.141968,1004.893555 635.729736,1005.033020 
	C626.309326,1005.238037 616.877441,1005.459473 607.492065,1006.200684 
	C605.888367,1006.327271 603.298523,1009.026123 603.220032,1010.636902 
	C602.965454,1015.859619 603.987915,1021.131470 603.946045,1026.379761 
	C603.728394,1053.629395 603.293701,1080.877319 603.046082,1108.126709 
	C603.012146,1111.866577 604.325317,1115.726440 603.754456,1119.331177 
	C602.484985,1127.346069 602.628784,1135.147949 604.344543,1143.000000 
	C615.321228,1143.000000 625.825562,1142.747192 636.309875,1143.096558 
	C642.412903,1143.299927 644.035217,1142.225464 644.023865,1134.985474 
	C643.970337,1100.823608 644.000000,1066.661865 644.000000,1031.500000 
M612.751770,940.023560 
	C596.750122,947.185120 598.776855,968.304199 606.913147,977.412109 
	C612.980103,984.203613 624.237183,987.027161 633.203003,983.333923 
	C643.739624,978.993652 648.718323,971.829712 649.289368,960.492920 
	C650.223633,941.946899 627.147705,932.367798 612.751770,940.023560 
z"/>
<path fill="#0E5766" opacity="1.000000" stroke="none" 
	d="
M660.541931,1.000000 
	C671.557007,7.366774 680.250916,15.962467 688.995605,24.483454 
	C704.211548,39.310097 719.298950,54.269440 734.595276,69.012230 
	C741.679138,75.839691 749.105225,82.313667 756.417664,88.901825 
	C763.174622,94.989502 765.844971,103.130417 765.866150,111.618950 
	C766.084839,199.261124 766.012878,286.904053 765.909424,374.546661 
	C765.907349,376.264862 764.975891,378.414917 763.751282,379.632568 
	C749.279968,394.021210 734.760132,408.364014 720.060181,422.518555 
	C712.130859,430.153687 703.879211,437.457703 695.676392,444.803131 
	C692.039917,448.059509 685.558411,448.190735 682.286804,444.701996 
	C671.504761,433.204254 660.964355,421.479858 650.326538,409.846802 
	C649.764954,409.232758 649.160767,408.657654 648.574768,408.066010 
	C614.863708,374.031982 581.175110,339.975769 547.393311,306.012085 
	C545.010254,303.616180 543.908325,301.313843 543.914734,297.835815 
	C544.031250,234.353363 544.025452,170.870590 543.928894,107.388084 
	C543.923706,103.994431 544.767517,101.588043 547.230164,99.140205 
	C575.591003,70.949692 603.705750,42.510380 632.207581,14.464145 
	C637.312073,9.441249 643.879089,5.904628 649.885376,1.340889 
	C653.361267,1.000000 656.722595,1.000000 660.541931,1.000000 
z"/>
<path fill="#000000" opacity="1.000000" stroke="none" 
	d="
M1.000000,945.250000 
	C11.982750,944.999329 22.965500,944.998108 33.948250,944.997986 
	C40.947742,944.997925 47.966953,945.313293 54.938908,944.875427 
	C58.772179,944.634766 60.573593,946.154724 61.743828,949.343445 
	C65.823341,960.459412 69.736404,971.640869 74.048225,982.666199 
	C81.575340,1001.912842 89.418060,1021.035767 97.003555,1040.259888 
	C103.760078,1057.383301 110.336143,1074.577881 117.030075,1091.726196 
	C117.597519,1093.179810 118.453827,1094.520752 119.328178,1096.207764 
	C128.702911,1070.987549 137.695221,1046.193604 147.141525,1021.573792 
	C154.713867,1001.838196 162.902588,982.339722 170.666367,962.676270 
	C172.426804,958.217468 173.656311,953.538208 174.952759,948.910706 
	C175.944931,945.369446 178.063660,943.934082 181.741989,943.956848 
	C197.906860,944.057007 214.075745,944.173950 230.236328,943.892395 
	C234.989288,943.809631 236.068390,945.679504 236.052734,949.907349 
	C235.950272,977.571655 236.000000,1005.236450 236.000000,1032.901123 
	C236.000000,1067.398682 236.003052,1101.896118 235.997284,1136.393677 
	C235.996185,1142.998413 235.980133,1142.999268 229.437485,1142.999756 
	C219.271561,1143.000488 209.093246,1142.702393 198.944870,1143.124390 
	C193.788162,1143.338745 192.924408,1141.104614 192.947586,1136.770508 
	C193.062531,1115.272705 192.872421,1093.772827 193.040070,1072.275757 
	C193.175919,1054.856201 193.615097,1037.438232 194.037216,1020.022461 
	C194.139938,1015.784729 194.704285,1011.558228 195.056381,1007.326538 
	C194.452072,1007.231689 193.847763,1007.136780 193.243454,1007.041931 
	C188.830856,1017.818420 184.293411,1028.545898 180.031082,1039.381470 
	C170.591827,1063.377686 161.258804,1087.415894 151.950073,1111.463135 
	C148.542862,1120.265015 145.066788,1129.056519 142.151657,1138.024902 
	C140.986313,1141.609985 139.285553,1143.043579 135.704575,1143.025269 
	C123.045891,1142.960205 110.386658,1143.000000 98.311783,1143.000000 
	C80.675209,1098.870239 63.164268,1055.054688 45.653328,1011.239197 
	C44.971146,1011.329834 44.288963,1011.420471 43.606781,1011.511108 
	C43.412491,1014.941833 43.028740,1018.375488 43.081810,1021.802368 
	C43.127056,1024.724121 43.952427,1027.637695 43.957741,1030.555786 
	C44.022728,1066.219727 43.919834,1101.884277 44.100330,1137.547485 
	C44.123177,1142.062134 42.695805,1143.148804 38.399864,1143.113647 
	C30.489971,1143.048828 22.576738,1143.802246 14.660239,1143.933228 
	C11.421022,1143.986816 8.042624,1143.719849 4.983002,1142.772949 
	C3.656315,1142.362549 2.139771,1139.873901 2.126266,1138.317017 
	C1.939783,1116.820190 1.871738,1095.320190 2.033504,1073.822998 
	C2.224775,1048.404541 2.891833,1022.988220 2.921187,997.570557 
	C2.940910,980.492249 2.211702,963.413147 1.408784,946.167236 
	C1.000000,946.000000 1.000000,945.500000 1.000000,945.250000 
z"/>
<path fill="#000000" opacity="1.000000" stroke="none" 
	d="
M1175.468506,1207.000000 
	C1169.975220,1205.666626 1164.971436,1204.246460 1159.919922,1203.023315 
	C1154.513306,1201.714233 1152.528198,1199.107178 1154.070679,1193.799805 
	C1156.305054,1186.111938 1158.846191,1178.500977 1161.582520,1170.975830 
	C1163.220581,1166.471313 1166.701538,1165.491455 1170.862793,1166.928711 
	C1184.988770,1171.807617 1192.893555,1169.486084 1199.111084,1157.452026 
	C1201.106812,1153.589478 1203.634399,1149.871460 1204.826050,1145.769897 
	C1205.624756,1143.020264 1205.186157,1139.442261 1204.111572,1136.701294 
	C1200.199585,1126.722900 1195.888306,1116.895874 1191.542847,1107.093506 
	C1181.669434,1084.821167 1171.719238,1062.582764 1161.731689,1040.361450 
	C1157.786499,1031.583862 1153.898193,1022.765991 1149.522095,1014.202515 
	C1146.991577,1009.250610 1147.129395,1005.948853 1153.673096,1005.402649 
	C1165.582520,1004.408447 1177.638794,1004.794067 1189.606812,1005.274475 
	C1191.470581,1005.349304 1193.971558,1008.670959 1194.860107,1010.994995 
	C1204.917847,1037.305298 1214.727783,1063.710571 1224.567749,1090.103882 
	C1225.234985,1091.893433 1225.609985,1093.791992 1226.458740,1096.861572 
	C1231.585938,1084.396606 1236.513184,1073.038330 1240.947266,1061.490845 
	C1247.486938,1044.460327 1253.699829,1027.304077 1259.999634,1010.182129 
	C1262.040039,1004.636658 1266.520996,1004.773438 1271.215576,1004.977600 
	C1280.625366,1005.386841 1290.044434,1005.591675 1299.450073,1006.071716 
	C1301.070068,1006.154480 1302.641846,1007.180664 1304.617920,1007.885498 
	C1305.000000,1008.000000 1305.000000,1008.500000 1304.632568,1008.864624 
	C1301.895874,1014.657532 1299.529663,1020.087097 1297.156860,1025.513794 
	C1287.855347,1046.788086 1278.632080,1068.097046 1269.218628,1089.321411 
	C1263.693848,1101.777710 1257.729614,1114.039062 1252.204834,1126.495239 
	C1244.024658,1144.938599 1236.327271,1163.600342 1227.900879,1181.928467 
	C1222.906860,1192.790771 1215.312378,1201.312988 1202.822388,1204.095215 
	C1200.450317,1204.623657 1198.269287,1206.009766 1196.000000,1207.000000 
	C1189.312378,1207.000000 1182.624634,1207.000000 1175.468506,1207.000000 
z"/>
<path fill="#FFFFFF" opacity="1.000000" stroke="none" 
	d="
M1196.468628,1207.000000 
	C1198.269287,1206.009766 1200.450317,1204.623657 1202.822388,1204.095215 
	C1215.312378,1201.312988 1222.906860,1192.790771 1227.900879,1181.928467 
	C1236.327271,1163.600342 1244.024658,1144.938599 1252.204834,1126.495239 
	C1257.729614,1114.039062 1263.693848,1101.777710 1269.218628,1089.321411 
	C1278.632080,1068.097046 1287.855347,1046.788086 1297.156860,1025.513794 
	C1299.529663,1020.087097 1301.895874,1014.657532 1304.632568,1009.114624 
	C1305.000000,1074.905884 1305.000000,1140.811646 1305.000000,1207.000000 
	C1268.979614,1207.000000 1232.958374,1207.000000 1196.468628,1207.000000 
z"/>
<path fill="#31989D" opacity="1.000000" stroke="none" 
	d="
M816.046021,617.665710 
	C814.291504,617.769897 812.537048,617.874084 810.035522,617.640747 
	C801.157227,617.212646 793.025879,617.122070 784.894592,617.031494 
	C775.566528,617.020996 766.214844,616.588928 756.916443,617.108887 
	C745.808533,617.730103 736.711731,613.505005 728.969238,606.331055 
	C716.924011,595.170349 704.970764,583.864075 693.667358,571.965149 
	C685.907898,563.796753 679.121704,554.667358 672.266846,545.687866 
	C667.062744,538.870911 667.542664,526.421631 673.402222,520.214600 
	C682.241333,510.851379 691.514221,501.895020 700.675354,492.839142 
	C719.474121,474.256409 738.289673,455.690338 757.160645,437.180969 
	C767.589172,426.952301 778.155334,416.864105 788.638855,406.691376 
	C802.471375,393.268982 816.440857,379.982880 830.065491,366.352203 
	C847.457275,348.952515 864.570618,331.274261 881.790649,313.703094 
	C897.029114,298.154083 912.610779,282.919159 927.328796,266.891602 
	C934.954224,258.587738 943.152222,251.698029 954.069763,249.035599 
	C964.289856,246.543259 974.563660,247.135040 983.998047,252.500626 
	C993.524841,257.918823 999.695740,266.014587 1002.258606,276.730347 
	C1002.672180,278.459747 1002.967468,280.266571 1002.969604,282.037994 
	C1003.012146,317.352020 1003.003357,352.666107 1003.007935,388.917450 
	C1003.007141,418.826660 1003.013306,447.798553 1002.997803,476.770477 
	C1002.972839,523.557617 1002.933533,570.344788 1002.441833,617.084778 
	C941.444275,617.026123 880.905212,617.010193 820.366150,617.031006 
	C818.926025,617.031494 817.486084,617.444885 816.046021,617.665710 
z"/>
<path fill="#17556A" opacity="1.000000" stroke="none" 
	d="
M491.055450,388.861115 
	C510.874268,388.907410 530.694031,389.083008 550.511536,388.946899 
	C560.841614,388.875977 569.781311,392.787903 576.827942,399.546478 
	C595.748230,417.693176 614.089966,436.445923 632.545715,455.072571 
	C638.951660,461.537781 640.001953,475.308716 634.758179,482.690521 
	C632.025574,486.537292 629.030701,490.254608 625.760620,493.651459 
	C617.791443,501.929688 609.667908,510.063568 601.467529,518.114075 
	C590.828674,528.558594 580.068420,538.879700 569.335144,549.227722 
	C560.741089,557.513428 552.067627,565.717102 543.504028,574.033997 
	C531.018066,586.160278 518.623169,598.380310 506.129639,610.498718 
	C503.798187,612.760132 501.185486,614.731628 498.252747,616.661682 
	C496.425690,615.039673 495.082184,613.559082 493.666595,612.150940 
	C434.609619,553.408142 375.545715,494.672302 316.484497,435.933777 
	C313.176331,432.643677 309.897156,429.324341 306.573639,426.049927 
	C305.680817,425.170258 304.674438,424.405823 303.003326,422.974518 
	C303.003326,425.616669 303.003906,427.384644 303.003204,429.152588 
	C302.978363,491.805695 302.953430,554.458801 302.928528,617.111816 
	C291.436340,617.074524 279.941620,616.885254 268.453308,617.078674 
	C264.171417,617.150696 261.029053,615.615112 258.091400,612.726074 
	C247.562424,602.371399 236.987961,592.061218 226.315048,581.855164 
	C214.392807,570.454468 202.357941,559.171265 190.347168,547.863464 
	C179.669418,537.810608 168.980026,527.769897 158.254379,517.768250 
	C147.592804,507.826355 149.448822,498.959534 158.376450,490.157440 
	C167.450607,481.210876 176.617676,472.356445 185.848175,463.571075 
	C197.092026,452.869446 208.444458,442.281891 219.750259,431.645325 
	C231.663086,420.437561 243.470810,409.115021 255.532730,398.070068 
	C261.808075,392.323914 269.394806,389.145508 278.021240,389.023010 
	C286.015442,388.909454 294.012421,388.989563 302.937500,388.995636 
	C363.770813,389.020233 423.674774,389.035828 483.578735,389.039032 
	C486.070984,389.039154 488.563202,388.923065 491.055450,388.861115 
z"/>
<path fill="#48B2B0" opacity="1.000000" stroke="none" 
	d="
M768.900635,855.630859 
	C763.486511,862.054382 756.936829,864.130310 748.928223,864.106628 
	C685.103088,863.917480 621.277100,864.002930 557.451416,863.999512 
	C545.327881,863.998840 537.001709,855.706665 537.001099,843.637939 
	C536.998230,783.145203 537.020752,722.652405 536.956726,662.159729 
	C536.952026,657.721497 536.309875,653.285522 536.004944,648.845703 
	C535.531494,641.951294 538.583008,636.377686 543.014648,631.550903 
	C556.083740,617.316223 569.334045,603.248047 582.429138,589.037109 
	C587.779785,583.230530 592.722961,577.039124 598.218628,571.379333 
	C601.509949,567.989685 605.388123,565.120422 609.224976,562.322449 
	C613.975952,558.857910 620.952515,559.014954 625.217224,562.699768 
	C636.037781,572.049438 647.084473,581.176086 657.413025,591.048706 
	C682.380981,614.914551 706.886597,639.263489 731.789429,663.198364 
	C744.036621,674.969482 756.821960,686.179504 769.167236,697.851318 
	C770.725708,699.324768 771.876648,702.063843 771.883667,704.220886 
	C772.036255,751.381409 772.055420,798.542786 771.878235,845.703186 
	C771.866150,848.926331 770.110901,852.143005 768.900635,855.630859 
z"/>
<path fill="#033236" opacity="1.000000" stroke="none" 
	d="
M302.961212,617.572815 
	C302.953430,554.458801 302.978363,491.805695 303.003204,429.152588 
	C303.003906,427.384644 303.003326,425.616669 303.003326,422.974518 
	C304.674438,424.405823 305.680817,425.170258 306.573639,426.049927 
	C309.897156,429.324341 313.176331,432.643677 316.484497,435.933777 
	C375.545715,494.672302 434.609619,553.408142 493.666595,612.150940 
	C495.082184,613.559082 496.425690,615.039673 497.943237,616.798157 
	C479.888275,635.739807 461.711517,654.387939 443.492249,672.994446 
	C425.375336,691.496521 407.189270,709.930908 389.090973,728.451111 
	C383.673492,733.994934 378.637451,739.920532 373.093170,745.329468 
	C363.769592,754.425476 352.492249,759.783752 339.388824,758.854431 
	C321.138885,757.560120 308.693115,746.626770 303.054565,728.886353 
	C302.669952,727.676392 303.000244,726.238770 303.000153,724.907043 
	C302.997955,689.282593 302.995941,653.658203 302.961212,617.572815 
z"/>
<path fill="#1E817E" opacity="1.000000" stroke="none" 
	d="
M1002.900330,617.131958 
	C1002.933533,570.344788 1002.972839,523.557617 1002.997803,476.770477 
	C1003.013306,447.798553 1003.007141,418.826660 1003.020569,389.380005 
	C1014.861267,388.936768 1026.695068,388.842285 1038.520386,389.113159 
	C1040.712524,389.163361 1043.381226,390.139130 1044.964722,391.615692 
	C1058.997192,404.700684 1072.815186,418.015350 1086.735474,431.220978 
	C1098.608765,442.484680 1110.495728,453.734558 1122.448975,464.913269 
	C1130.505981,472.448242 1138.826660,479.705048 1146.783691,487.342285 
	C1159.695801,499.735352 1156.208252,507.555847 1147.478882,516.713562 
	C1136.005859,528.749451 1123.107910,539.427185 1110.827026,550.693542 
	C1110.213623,551.256287 1109.644043,551.866760 1109.045776,552.446411 
	C1099.510742,561.683960 1089.988892,570.935303 1080.433960,580.152222 
	C1071.480225,588.789246 1062.616577,597.525269 1053.478760,605.963745 
	C1045.986328,612.882690 1037.431519,617.361511 1026.713867,617.101562 
	C1019.130920,616.917603 1011.525085,617.680908 1003.455078,617.795166 
	C1002.980713,617.568909 1002.900330,617.131958 1002.900330,617.131958 
z"/>
<path fill="#000000" opacity="1.000000" stroke="none" 
	d="
M956.192505,953.693359 
	C973.060486,965.003723 982.107178,980.317810 981.903137,1000.426941 
	C981.811951,1009.413330 981.260986,1018.482971 979.848206,1027.344238 
	C978.318604,1036.938965 972.940918,1044.832764 966.496094,1052.090698 
	C955.614685,1064.344849 941.395081,1069.765625 925.820496,1071.841309 
	C916.692871,1073.057861 907.353516,1072.814331 898.105164,1072.961182 
	C887.555786,1073.128784 877.001648,1073.000000 866.000000,1073.000000 
	C866.000000,1077.853638 866.000000,1081.482788 866.000000,1085.111938 
	C866.000000,1102.444458 865.922974,1119.777588 866.055054,1137.109131 
	C866.087463,1141.359253 864.944946,1143.197876 860.219360,1143.127197 
	C851.975769,1143.003662 843.722595,1143.814697 835.469055,1143.932617 
	C831.728638,1143.986206 827.951721,1143.475830 824.251099,1142.861328 
	C823.378296,1142.716309 822.464600,1141.219238 822.084534,1140.159546 
	C821.713745,1139.125366 822.000244,1137.855103 822.000244,1136.688477 
	C822.000000,1078.024536 822.000000,1019.360596 822.000000,960.696655 
	C822.000000,955.250732 822.000000,949.804810 822.000000,944.000000 
	C825.962097,944.000000 829.602478,944.000000 833.242859,944.000000 
	C859.908264,944.000000 886.576965,944.249451 913.237854,943.902893 
	C928.331299,943.706665 942.666321,945.912598 956.192505,953.693359 
M927.994995,986.484619 
	C920.787537,980.799744 911.986389,980.504395 903.559692,980.180359 
	C892.849915,979.768616 882.090454,980.860535 871.350891,980.900330 
	C867.310852,980.915344 865.817261,981.850769 865.898743,986.190308 
	C866.167480,1000.500000 866.173950,1014.821289 865.899292,1029.130737 
	C865.811157,1033.723633 867.431152,1035.113159 871.789551,1035.060059 
	C885.270020,1034.895630 898.760315,1035.230713 912.232239,1034.853882 
	C916.074097,1034.746338 920.135742,1033.423218 923.629272,1031.706543 
	C932.638245,1027.279175 937.054993,1019.174072 937.803406,1009.647644 
	C938.489136,1000.919495 936.077087,992.721802 927.994995,986.484619 
z"/>
<path fill="#000000" opacity="1.000000" stroke="none" 
	d="
M572.000000,1083.000000 
	C572.000000,1098.166382 572.086365,1112.833496 571.951599,1127.498535 
	C571.906494,1132.408203 573.064697,1139.053223 570.438477,1141.720703 
	C567.910828,1144.287964 561.205444,1142.889282 556.331360,1142.966064 
	C548.361816,1143.091431 540.388794,1143.000000 532.105530,1143.000000 
	C531.724060,1136.900146 531.361938,1131.110107 530.984436,1125.073242 
	C522.280151,1134.408203 513.080811,1142.477539 500.491394,1144.933838 
	C487.277679,1147.512085 474.115387,1146.765137 461.518188,1141.764282 
	C449.321747,1136.922729 439.943573,1128.892700 432.710815,1117.590576 
	C422.309998,1101.337646 421.162842,1083.510376 422.160828,1065.361816 
	C423.170013,1047.010254 429.952545,1030.652832 443.681976,1017.964661 
	C452.617645,1009.706726 463.433105,1005.010315 475.541290,1002.890137 
	C485.458679,1001.153564 495.369965,1001.315735 504.660461,1004.316650 
	C511.490082,1006.522827 517.546631,1011.317627 523.694214,1015.345581 
	C526.218384,1016.999512 528.076355,1019.670044 531.000000,1022.657288 
	C531.000000,1019.978210 531.000000,1018.389587 531.000000,1016.800964 
	C531.000000,993.134827 531.096741,969.467896 530.910339,945.803223 
	C530.877014,941.570740 532.902161,940.096375 536.401245,940.049805 
	C546.732544,939.912354 557.074036,939.809875 567.392273,940.201599 
	C568.980164,940.261902 570.617065,942.885010 571.921082,944.563843 
	C572.405640,945.187622 572.000000,946.502930 572.000000,947.502930 
	C572.000000,992.501953 572.000000,1037.500977 572.000000,1083.000000 
M485.751862,1108.999023 
	C492.720215,1110.828491 499.602203,1111.678589 506.895416,1110.121460 
	C517.895020,1107.772949 523.829468,1099.751221 529.086426,1091.180054 
	C531.247375,1087.656616 532.033325,1083.033691 532.541016,1078.802490 
	C533.835938,1068.011108 532.673096,1057.486938 524.659241,1049.313110 
	C516.738098,1041.233887 507.294830,1036.977295 495.330383,1037.769897 
	C485.594238,1038.415039 477.317993,1041.982178 471.256042,1048.653931 
	C462.227509,1058.590942 461.161346,1071.342163 463.664581,1084.058960 
	C466.033173,1096.091797 474.535614,1103.488770 485.751862,1108.999023 
z"/>
<path fill="#8DD1D0" opacity="1.000000" stroke="none" 
	d="
M1002.441833,617.084778 
	C1002.900330,617.131958 1002.980713,617.568909 1002.992554,617.790771 
	C1003.002991,655.315735 1003.050476,692.618958 1002.973816,729.921875 
	C1002.946533,743.225037 991.427551,761.788635 972.305969,760.005371 
	C963.043518,759.141479 955.103149,755.068604 948.537170,748.887817 
	C934.308228,735.493591 920.435730,721.718079 906.517395,707.997131 
	C877.606323,679.495850 848.758179,650.930664 819.894287,622.381470 
	C818.595947,621.097290 817.397522,619.712158 816.099243,618.019897 
	C817.486084,617.444885 818.926025,617.031494 820.366150,617.031006 
	C880.905212,617.010193 941.444275,617.026123 1002.441833,617.084778 
z"/>
<path fill="#8DD1D0" opacity="1.000000" stroke="none" 
	d="
M490.894043,388.575562 
	C488.563202,388.923065 486.070984,389.039154 483.578735,389.039032 
	C423.674774,389.035828 363.770813,389.020233 303.398438,388.936798 
	C302.953369,351.559937 302.964966,314.253174 303.006042,276.946381 
	C303.021454,262.942230 313.425323,247.636765 329.512329,246.178024 
	C338.967621,245.320648 347.248566,249.523117 354.544006,255.182846 
	C359.235535,258.822510 363.477417,263.074127 367.718719,267.256470 
	C396.855530,295.988007 425.913788,324.799194 455.051880,353.529510 
	C466.875305,365.187469 478.834930,376.707306 490.894043,388.575562 
z"/>
<path fill="#000000" opacity="1.000000" stroke="none" 
	d="
M985.001099,1059.167480 
	C986.875244,1049.041992 989.639404,1039.704712 995.136963,1031.359009 
	C1005.921204,1014.987549 1020.686584,1005.327820 1040.426392,1002.849976 
	C1052.518311,1001.332153 1064.157959,1001.409180 1075.118408,1007.090820 
	C1081.002197,1010.140869 1086.745361,1013.620422 1090.304932,1019.680908 
	C1090.811157,1020.542847 1092.372803,1020.784851 1094.000000,1021.586914 
	C1094.000000,1017.779602 1093.933350,1014.791992 1094.016724,1011.808594 
	C1094.121582,1008.056885 1095.389404,1005.789124 1099.892090,1005.915161 
	C1109.713135,1006.189880 1119.549072,1006.108765 1129.375000,1005.940308 
	C1132.749023,1005.882446 1134.075928,1006.799988 1134.066895,1010.424438 
	C1133.962158,1052.404419 1134.017822,1094.384888 1133.948730,1136.365112 
	C1133.945068,1138.543091 1133.198608,1140.719604 1132.778809,1142.999878 
	C1120.930786,1142.999878 1109.449097,1142.924072 1097.969727,1143.050171 
	C1094.870117,1143.084229 1093.820557,1141.898926 1093.960449,1138.918823 
	C1094.128174,1135.344971 1094.000122,1131.757324 1094.000122,1127.060913 
	C1091.010498,1129.402100 1088.757690,1130.906982 1086.809326,1132.736206 
	C1077.690186,1141.297607 1067.109253,1145.830566 1054.430420,1146.099731 
	C1040.308228,1146.399536 1026.904419,1144.349243 1014.949585,1136.422729 
	C999.048157,1125.879517 988.739746,1111.437988 986.079529,1092.299561 
	C984.864197,1083.556030 984.572510,1074.676758 984.066650,1065.847412 
	C983.949036,1063.794556 984.666748,1061.694092 985.001099,1059.167480 
M1093.049194,1091.497681 
	C1097.308960,1081.299927 1096.604614,1071.034424 1094.196899,1060.486328 
	C1092.089233,1051.253174 1086.767822,1044.305664 1079.064697,1039.979370 
	C1072.074219,1036.053223 1064.032715,1035.270996 1055.621826,1036.853271 
	C1027.482300,1042.147095 1021.800842,1068.323120 1028.054565,1088.883911 
	C1031.067139,1098.788330 1038.675781,1104.501221 1047.697144,1109.083374 
	C1062.740356,1116.723999 1086.410645,1109.193726 1093.049194,1091.497681 
z"/>
<path fill="#000000" opacity="1.000000" stroke="none" 
	d="
M359.560944,1004.223511 
	C377.657013,1009.156982 391.155304,1019.634644 399.104645,1035.985596 
	C402.812988,1043.613159 404.255341,1052.482422 405.842468,1060.954224 
	C406.984497,1067.050171 406.727539,1073.417114 406.978973,1079.667847 
	C407.151978,1083.968750 405.547119,1086.120972 400.637207,1086.092163 
	C369.655396,1085.910278 338.671967,1086.000000 307.689087,1086.000000 
	C305.876465,1086.000000 304.063812,1086.000000 300.604584,1086.000000 
	C303.066101,1090.790283 304.458191,1095.134644 307.146576,1098.417358 
	C314.525208,1107.427124 324.123444,1112.487793 336.069061,1111.966919 
	C344.083832,1111.617432 352.277222,1111.835327 360.028748,1110.142212 
	C365.784332,1108.885010 370.949860,1104.948853 376.394257,1102.238037 
	C381.415680,1099.737793 382.983826,1100.712646 385.885376,1105.175171 
	C388.886627,1109.791138 392.774139,1113.868896 396.529083,1117.947144 
	C401.335205,1123.166992 401.259735,1125.933838 395.536285,1129.820435 
	C375.900299,1143.154907 354.067902,1147.715820 330.660278,1146.002563 
	C315.839996,1144.917969 302.207855,1139.762573 290.060883,1131.801147 
	C274.978210,1121.915405 265.306671,1107.852051 262.955750,1089.363647 
	C261.162018,1075.257202 260.842072,1061.209106 266.159210,1047.839111 
	C268.672821,1041.518677 272.491547,1035.538574 276.602203,1030.068115 
	C285.785065,1017.847229 297.431824,1008.750610 312.561005,1004.881104 
	C327.184631,1001.140991 341.897919,1000.455261 356.693848,1003.935303 
	C357.487915,1004.122192 358.353546,1004.005066 359.560944,1004.223511 
M330.500061,1058.000000 
	C343.305450,1058.000000 356.110840,1058.000000 368.942352,1058.000000 
	C369.943634,1045.587036 357.962006,1035.391602 348.936249,1033.317383 
	C342.010193,1031.725708 334.210846,1031.905273 327.174011,1033.252075 
	C313.067413,1035.951904 305.404083,1045.708984 303.168365,1058.000000 
	C311.989746,1058.000000 320.744934,1058.000000 330.500061,1058.000000 
z"/>
<path fill="#000000" opacity="1.000000" stroke="none" 
	d="
M714.231079,1007.012085 
	C736.403259,999.613525 758.012207,999.430969 779.130737,1009.121216 
	C784.911926,1011.773987 790.347107,1015.375793 795.493958,1019.151489 
	C799.308533,1021.949829 798.960876,1025.269531 795.816528,1028.736572 
	C790.859009,1034.203125 785.975525,1039.740356 781.185547,1045.354248 
	C777.352539,1049.846436 774.702209,1050.412476 770.049622,1046.483398 
	C758.013367,1036.318970 744.574768,1037.301270 730.957153,1041.625977 
	C716.571777,1046.194336 711.431213,1057.712036 709.996704,1071.596924 
	C708.913208,1082.084229 710.541504,1092.317993 718.357971,1099.531982 
	C731.946838,1112.074097 751.953003,1116.542236 768.568237,1102.978271 
	C770.298035,1101.566162 772.194092,1099.957764 774.255615,1099.473633 
	C776.012390,1099.061279 778.845703,1099.466553 779.949829,1100.664795 
	C786.150208,1107.393066 791.974854,1114.468018 797.919739,1121.431396 
	C800.123657,1124.012939 799.063660,1126.218384 796.869080,1127.985352 
	C785.460876,1137.170288 772.329041,1142.218994 758.018677,1145.117554 
	C738.869812,1148.996460 721.006226,1145.493164 703.987488,1136.924194 
	C684.701172,1127.213623 674.257751,1110.543213 670.134033,1089.972534 
	C666.753601,1073.109985 668.880249,1056.493164 676.582153,1041.006470 
	C684.145325,1025.798828 696.413696,1015.271851 711.653931,1008.071167 
	C712.380005,1007.728088 713.101196,1007.374695 714.231079,1007.012085 
z"/>
<path fill="#000000" opacity="1.000000" stroke="none" 
	d="
M644.000000,1032.000000 
	C644.000000,1066.661865 643.970337,1100.823608 644.023865,1134.985474 
	C644.035217,1142.225464 642.412903,1143.299927 636.309875,1143.096558 
	C625.825562,1142.747192 615.321228,1143.000000 604.344543,1143.000000 
	C602.628784,1135.147949 602.484985,1127.346069 603.754456,1119.331177 
	C604.325317,1115.726440 603.012146,1111.866577 603.046082,1108.126709 
	C603.293701,1080.877319 603.728394,1053.629395 603.946045,1026.379761 
	C603.987915,1021.131470 602.965454,1015.859619 603.220032,1010.636902 
	C603.298523,1009.026123 605.888367,1006.327271 607.492065,1006.200684 
	C616.877441,1005.459473 626.309326,1005.238037 635.729736,1005.033020 
	C642.141968,1004.893555 643.996216,1006.822571 643.999329,1013.002563 
	C644.002441,1019.168396 644.000000,1025.334229 644.000000,1032.000000 
z"/>
<path fill="#000000" opacity="1.000000" stroke="none" 
	d="
M613.147827,939.977905 
	C627.147705,932.367798 650.223633,941.946899 649.289368,960.492920 
	C648.718323,971.829712 643.739624,978.993652 633.203003,983.333923 
	C624.237183,987.027161 612.980103,984.203613 606.913147,977.412109 
	C598.776855,968.304199 596.750122,947.185120 613.147827,939.977905 
z"/>
<path fill="#128081" opacity="1.000000" stroke="none" 
	d="
M785.118896,617.411194 
	C793.025879,617.122070 801.157227,617.212646 809.601318,617.563110 
	C801.723755,617.812256 793.533447,617.801575 785.118896,617.411194 
z"/>
<path fill="#FFFFFF" opacity="1.000000" stroke="none" 
	d="
M928.288513,986.722900 
	C936.077087,992.721802 938.489136,1000.919495 937.803406,1009.647644 
	C937.054993,1019.174072 932.638245,1027.279175 923.629272,1031.706543 
	C920.135742,1033.423218 916.074097,1034.746338 912.232239,1034.853882 
	C898.760315,1035.230713 885.270020,1034.895630 871.789551,1035.060059 
	C867.431152,1035.113159 865.811157,1033.723633 865.899292,1029.130737 
	C866.173950,1014.821289 866.167480,1000.500000 865.898743,986.190308 
	C865.817261,981.850769 867.310852,980.915344 871.350891,980.900330 
	C882.090454,980.860535 892.849915,979.768616 903.559692,980.180359 
	C911.986389,980.504395 920.787537,980.799744 928.288513,986.722900 
z"/>
<path fill="#FFFFFF" opacity="1.000000" stroke="none" 
	d="
M485.342407,1108.989746 
	C474.535614,1103.488770 466.033173,1096.091797 463.664581,1084.058960 
	C461.161346,1071.342163 462.227509,1058.590942 471.256042,1048.653931 
	C477.317993,1041.982178 485.594238,1038.415039 495.330383,1037.769897 
	C507.294830,1036.977295 516.738098,1041.233887 524.659241,1049.313110 
	C532.673096,1057.486938 533.835938,1068.011108 532.541016,1078.802490 
	C532.033325,1083.033691 531.247375,1087.656616 529.086426,1091.180054 
	C523.829468,1099.751221 517.895020,1107.772949 506.895416,1110.121460 
	C499.602203,1111.678589 492.720215,1110.828491 485.342407,1108.989746 
z"/>
<path fill="#FFFFFF" opacity="1.000000" stroke="none" 
	d="
M1093.010986,1091.897217 
	C1086.410645,1109.193726 1062.740356,1116.723999 1047.697144,1109.083374 
	C1038.675781,1104.501221 1031.067139,1098.788330 1028.054565,1088.883911 
	C1021.800842,1068.323120 1027.482300,1042.147095 1055.621826,1036.853271 
	C1064.032715,1035.270996 1072.074219,1036.053223 1079.064697,1039.979370 
	C1086.767822,1044.305664 1092.089233,1051.253174 1094.196899,1060.486328 
	C1096.604614,1071.034424 1097.308960,1081.299927 1093.010986,1091.897217 
z"/>
<path fill="#FFFFFF" opacity="1.000000" stroke="none" 
	d="
M330.000122,1058.000000 
	C320.744934,1058.000000 311.989746,1058.000000 303.168365,1058.000000 
	C305.404083,1045.708984 313.067413,1035.951904 327.174011,1033.252075 
	C334.210846,1031.905273 342.010193,1031.725708 348.936249,1033.317383 
	C357.962006,1035.391602 369.943634,1045.587036 368.942352,1058.000000 
	C356.110840,1058.000000 343.305450,1058.000000 330.000122,1058.000000 
z"/>
</svg>